<?xml version="1.0" encoding="utf-8"?>
<!-- Generator: Adobe Illustrator 26.0.0, SVG Export Plug-In . SVG Version: 6.00 Build 0)  -->
<svg version="1.1" id="Layer_2" xmlns="http://www.w3.org/2000/svg" xmlns:xlink="http://www.w3.org/1999/xlink" x="0px" y="0px"
	 viewBox="0 0 698.2 725.2" style="enable-background:new 0 0 698.2 725.2;" xml:space="preserve">
<style type="text/css">
	.st0{fill:#FFFFFF;}
</style>
<g id="Layer_1-2">
	<path class="st0" d="M596,596c65.9-65.9,102.2-153.6,102.2-246.9S661.9,168.2,596,102.3C530,36.3,442.4,0,349.1,0
		S168.2,36.3,102.2,102.3S0,255.9,0,349.1S36.3,530,102.2,596c7,7,14.2,13.6,21.7,20c-3.3,12-5.2,24.2-2.5,35.9
		c1,4.4,0.8,8.9,6.7,9.8c2.6,0.4,8.7,6.5,10.9,7.9c101.4,66.7,239.4,66.2,353.3,36.5c24.6-6.4,47.6-15.5,70.5-26.2
		c6.1-2.8,7.6-7,8.4-12.3c0.3-2.2,0.4-4.5,0.4-6.7c-5.8-8.9-9.1-20.3-9.1-30.2c0-1.8,0.1-3.6,0.3-5.5
		C574.4,616.2,585.5,606.5,596,596L596,596z M203.5,626.5c-0.8,0.9-1.8,1.6-2.8,2.6c-0.1-0.7-0.4-1.1-0.2-1.3
		c5.8-8.4,5.6-8.1-2.8-14.8c-6.5-5.2-12.4-11-18.3-17c-1.4-1.4-2.3-4.6-1.7-6.4c10.2-30.5,20.8-60.9,36.5-89.2
		c0.3-0.5,0.6-0.9,0.9-1.3c0.3,0.2,0.6,0.4,0.9,0.6c-3.5,7.2-7.4,14.3-10.3,21.7c-8.7,21.8-16.9,43.8-25.5,65.7
		c-1.6,4.2-0.6,7.1,2.5,9.8c6.7,5.8,13.4,11.6,20.1,17.4C207.2,618.1,207.5,622.2,203.5,626.5L203.5,626.5z M216.5,615.2
		c-0.5,0-1,0-1.5,0l2.9-104.6c0.7,0,1.4-0.1,2.2-0.1L216.5,615.2L216.5,615.2z M234.2,324.8c-0.4,1.2-3.5,2.1-5.3,1.9
		c-7.9-0.9-15.6-2.2-23.2-3.3c-8.6,1.2-16.8,2.5-25,3.2c-1.5,0.1-4.2-1.3-4.7-2.6c-6.1-17,3.6-35.6,20.5-40
		c20.5-5.3,38.9,7.7,39.9,28.9C236.7,316.9,235.5,321,234.2,324.8L234.2,324.8z M257.7,322.1c-4.2,0.2-5.7-1.3-5.3-5.4
		c0.2-2.2,0.2-4.4,0-6.6c-0.9-11.4,5.4-13.7,13.6-14.7c2.4-0.3,4.8-0.3,7.2-0.4c13.3-0.3,25.3,4,36.2,11.7c6,4.3,6.9,15.9,1.4,20.8
		c-0.6,0.5-2,0.6-2.9,0.4C291.5,323,274.7,321.4,257.7,322.1L257.7,322.1z M279.9,513.7c7.6,27.8,8.9,59.5,10.3,91.3L279.9,513.7z
		 M331.3,662.2c0.6-2.8,0.7-4.4,1.3-5.8c1.9-4.5-0.3-7.3-3.4-10c-7.6-6.7-15.3-13.4-22.8-20.2c-5.7-5.2-5.6-6.5,0.1-11.8
		c6-5.5,11.8-11.2,18-16.5c3.8-3.2,4.7-6.8,2.7-11.2c-8.4-18.9-16.3-38-25.4-56.7c-5-10.3-11.8-19.8-17.8-29.6
		c0.5-0.4,0.9-0.7,1.3-1c6.7,10.5,14.4,20.6,19.9,31.7c8.9,17.9,16.2,36.5,24.4,54.7c2.4,5.4,1.2,9.4-2.9,13.2
		c-5.5,5-10.6,10.2-16.2,15c-6.4,5.4-6.5,6.8-0.4,12.3c6.6,6,13.1,11.9,19.6,18C336.3,650.5,336.6,652.7,331.3,662.2L331.3,662.2z
		 M496.1,491.9c-10.8-14.7-10.1-28.1,0.4-43.9c1.8-2.7,4-5.1,6.6-8.3c1.3,10.4,7.3,15.3,15.8,18c15.4,4.9,31.2,7.2,47.4,6.5
		c5.6-0.3,6.8,2.2,6.3,6.9c-2.6,23.8-20.9,37.1-40.4,37.8C517.1,509.3,504.9,503.8,496.1,491.9L496.1,491.9z M542,586.3
		c1.3-1,2.1-1.7,3-2.2c12.4-8.3,23.3-18.3,31.4-30.9c3-4.6,6.2-7.4,11.6-9.1c14.8-4.6,24.1-26.4,10.3-37.7c-1-0.8-1.8-2.6-1.6-3.7
		c10-51.5,1.6-105.7-41-141.1c-32.4-26.9-77.5-32.9-117.1-20.1c-42.6,13.7-70.6,45.4-84.2,87.2c-5.3,16.4-15.2,39.5-5.5,55.9
		c3.7,6.3,7.6,12.6,11.3,18.8c-13.2,12.6-15.2,21-8,32.6c4.9,7.8,16.2,12.9,23.3,10.5c-1.3-3.4-2.8-6.7-4-10.1
		c-1.2-3.2-2.1-6.6-3.1-9.9c23.1,57.6,69.6,74.6,126.4,74.7c-28.2,3.1-55-2.8-80.6-13c-23,28.7-26.3,62.9-29,97.2
		c-0.1,0.7-0.1,1.3-0.2,1.9c-0.2-0.6-0.4-1.2-0.5-1.9c-1.9-7.1-3.3-14-5.1-20.9c-7.9-30.6-15.7-61.2-23.9-91.6
		c-5.2-19.5-11.1-38.8-16.9-58.1c-0.6-2.2-2.6-5-4.5-5.5c-17.3-4.8-34.7-9.1-52-13.7c-3.1-0.8-6.8-1.8-6.2-6.4
		c0.5-4.1-2-8.9,5.2-10.8c10.6-2.8,18.9-9.5,25.2-18.8c1.9-2.7,5.3-4.9,8.5-6.1c6.5-2.5,13.4-4.3,20.8-6.6
		c-4.2-5.2-7.9-9.6-11.1-14.2c-1.4-1.9-2-4.5-2.9-6.7c2.3-0.9,4.5-2.1,6.9-2.6c6.2-1.2,12.5-2.1,19-3.2l-9.8-27.2
		c13.8-4.5,27-8.7,39.2-17.5c-7.4-4-14.2-7.2-20.5-11.2c-6.4-4.1-12.2-8.9-19.5-14.4c23.9-8.1,46-15.2,64.8-30.9l-48.2-20.2
		l45.4-42.5l-58.3-9.1l34.3-58.7l-1-0.8l-55.4,20.1c-6.9-23.9-8.6-47.4-6.2-71.8c-1.8,0.5-3,0.6-4.1,1.1
		c-21.8,10.9-41.5,24.6-56.4,45.5c-14.2-18.8-26.8-37.9-44.7-53.3c-2.5,23.1-4.7,45.4-15.9,66.1c-16.9-10.5-34.9-17-55.6-19.3
		c10.9,18.1,17.2,36.4,19.1,56.4L82,238.2c0.6,1.1,0.8,1.7,1.1,2.1c0.9,0.9,1.8,1.8,2.8,2.7c13.3,11.9,25.8,24.3,34.6,40.1
		c5.5,10,1.2,11.3-7.2,17.3c-12,8.4-28.8,16.7-38.2,27.6c1.8,0.9,4.3,1.8,6.4,1.8c7.8,1.3,57,22.9,46.6,32.9
		c-9.5,9-18.8,18.4-28,27.6c-1,1-1.6,2.5-2.4,3.9c12.6,4.1,24.4,8.3,36.4,11.6c5.2,1.4,5.7,3.3,4.3,8c-3.1,10.5-5.4,21.2-8.3,32.6
		c10.9-0.8,21.2-1.3,31.4-2.5c3.7-0.5,4.4,0.4,4.6,3.8c0.5,7.7,1.4,15.4,2.2,23.8l19.1-8c-26.8-38.1-32-81.1-32.1-125.1
		c0.6,6.8,1.4,13.6,1.8,20.5c1.4,27.1,7.6,53,17.8,78.1c8.2,20.3,21.3,35.1,43.1,40.8c3.8,1,3.8,3.5,3.6,6.4c-0.1,3,0.6,6-3.8,7.4
		c-19.6,6.3-39.1,12.9-58.5,19.7c-2.2,0.8-4.7,3.5-5.4,5.8c-6.8,22.8-13.4,45.8-20.1,68.6c-1.8,6-3.9,12.2-6,18.5
		c-71.3-62-116.4-153.4-116.4-255c0-186.4,151.6-338,338-338s338,151.6,338,338c0,107-50,202.6-127.9,264.6
		C555.4,603.7,550.3,594.4,542,586.3L542,586.3z M469.8,481.6c-4.2,15.8-15.3,25.7-31.9,28.3c-22,3.4-41.2-7.6-47.8-27.1
		c-0.4-1-0.7-2.1-0.9-3.1c-2.3-14.6-2.1-14.3,12.2-15.3c11.3-0.8,22.7-2.2,33.7-4.6c10.4-2.2,19.9-6.5,20.2-20.5
		C470.1,450.9,474.1,465.5,469.8,481.6L469.8,481.6z"/>
</g>
</svg>
